<svg width="142" height="142" viewBox="0 0 142 142" fill="none" xmlns="http://www.w3.org/2000/svg">
<g filter="url(#filter0_i_6_193)">
<path d="M88.2856 17.3814C117.845 26.9809 134.026 58.7258 124.427 88.2855C114.827 117.845 83.0824 134.026 53.5226 124.427C23.9629 114.827 7.78195 83.0823 17.3815 53.5225C26.981 23.9628 58.7259 7.78185 88.2856 17.3814ZM54.6216 121.043C82.3124 130.035 112.05 114.877 121.043 87.1866C130.035 59.4957 114.878 29.7579 87.1867 20.7653C59.4958 11.7727 29.758 26.9306 20.7654 54.6215C11.7728 82.3123 26.9307 112.05 54.6216 121.043Z" fill="white"/>
</g>
<path d="M101.943 26.1355C102.509 25.3192 102.307 24.1962 101.473 23.6566C93.372 18.415 84.0493 15.3388 74.3987 14.7384C64.1491 14.1007 53.9204 16.2798 44.8207 21.0397C35.7211 25.7997 28.0974 32.9589 22.7756 41.7418C17.4538 50.5247 14.6369 60.5964 14.6299 70.8658C14.6229 81.1353 17.4262 91.2108 22.7361 100.001C28.0459 108.791 35.6599 115.961 44.7531 120.733C53.8463 125.505 64.072 127.698 74.3225 127.074C83.9739 126.487 93.3008 123.423 101.409 118.193C102.244 117.654 102.447 116.532 101.882 115.715C101.317 114.898 100.199 114.696 99.3629 115.233C91.7953 120.091 83.1003 122.937 74.104 123.484C64.5087 124.068 54.9365 122.015 46.4245 117.548C37.9125 113.081 30.7852 106.37 25.8147 98.1412C20.8442 89.9129 18.2201 80.4813 18.2266 70.8683C18.2332 61.2552 20.8701 51.8272 25.8517 43.6057C30.8333 35.3841 37.9698 28.6825 46.4878 24.2268C55.0059 19.7711 64.5808 17.7312 74.1753 18.3282C83.1708 18.8879 91.862 21.7454 99.423 26.6141C100.258 27.1518 101.377 26.9517 101.943 26.1355Z" fill="#FE9C29"/>
<path d="M60.2548 63.3574L53.4429 79.3335H51.1886L58.0986 63.5779H48.6403V61.6667H60.2548V63.3574ZM73.2881 63.5534H64.6874V69.1402C65.0631 68.6174 65.6186 68.1927 66.3537 67.866C67.0888 67.5229 67.881 67.3514 68.7305 67.3514C70.0863 67.3514 71.189 67.6373 72.0384 68.209C72.8878 68.7644 73.4923 69.4914 73.8516 70.3898C74.2274 71.2719 74.4152 72.2112 74.4152 73.2077C74.4152 74.3838 74.1947 75.4375 73.7536 76.3686C73.3126 77.2997 72.6346 78.0348 71.7199 78.5739C70.8214 79.113 69.7024 79.3825 68.3629 79.3825C66.6477 79.3825 65.2592 78.9414 64.1974 78.0593C63.1356 77.1772 62.4903 76.0011 62.2616 74.5309H64.4424C64.6548 75.462 65.104 76.1889 65.7901 76.7116C66.4762 77.2344 67.342 77.4958 68.3874 77.4958C69.6779 77.4958 70.6499 77.1119 71.3033 76.3441C71.9567 75.56 72.2834 74.5309 72.2834 73.2567C72.2834 71.9825 71.9567 71.0024 71.3033 70.3163C70.6499 69.6139 69.6861 69.2627 68.4119 69.2627C67.5461 69.2627 66.7865 69.475 66.1331 69.8998C65.496 70.3081 65.0305 70.8717 64.7364 71.5905H62.6292V61.5932H73.2881V63.5534ZM76.1532 65.6117C76.1532 64.5009 76.4881 63.6188 77.1579 62.9653C77.8276 62.2956 78.6852 61.9607 79.7307 61.9607C80.7762 61.9607 81.6338 62.2956 82.3035 62.9653C82.9733 63.6188 83.3082 64.5009 83.3082 65.6117C83.3082 66.7388 82.9733 67.6373 82.3035 68.307C81.6338 68.9605 80.7762 69.2872 79.7307 69.2872C78.6852 69.2872 77.8276 68.9605 77.1579 68.307C76.4881 67.6373 76.1532 66.7388 76.1532 65.6117ZM90.4631 62.2302L80.5393 79.3335H78.334L88.2578 62.2302H90.4631ZM79.7307 63.3329C79.1753 63.3329 78.7342 63.5289 78.4075 63.921C78.0971 64.2967 77.942 64.8603 77.942 65.6117C77.942 66.3631 78.0971 66.9349 78.4075 67.3269C78.7342 67.719 79.1753 67.915 79.7307 67.915C80.2861 67.915 80.7272 67.719 81.0539 67.3269C81.3806 66.9185 81.5439 66.3468 81.5439 65.6117C81.5439 64.8603 81.3806 64.2967 81.0539 63.921C80.7272 63.5289 80.2861 63.3329 79.7307 63.3329ZM85.538 75.952C85.538 74.8249 85.8728 73.9346 86.5426 73.2812C87.2124 72.6114 88.07 72.2766 89.1154 72.2766C90.1609 72.2766 91.0104 72.6114 91.6638 73.2812C92.3335 73.9346 92.6684 74.8249 92.6684 75.952C92.6684 77.0629 92.3335 77.9531 91.6638 78.6229C91.0104 79.2927 90.1609 79.6275 89.1154 79.6275C88.07 79.6275 87.2124 79.3008 86.5426 78.6474C85.8728 77.9777 85.538 77.0792 85.538 75.952ZM89.0909 73.6732C88.5355 73.6732 88.0945 73.8693 87.7678 74.2613C87.441 74.637 87.2777 75.2006 87.2777 75.952C87.2777 76.6871 87.441 77.2507 87.7678 77.6428C88.0945 78.0185 88.5355 78.2063 89.0909 78.2063C89.6463 78.2063 90.0874 78.0185 90.4141 77.6428C90.7408 77.2507 90.9042 76.6871 90.9042 75.952C90.9042 75.2006 90.7408 74.637 90.4141 74.2613C90.0874 73.8693 89.6463 73.6732 89.0909 73.6732Z" fill="#FE9C29"/>
<defs>
<filter id="filter0_i_6_193" x="14.6147" y="14.6145" width="112.579" height="114.83" filterUnits="userSpaceOnUse" color-interpolation-filters="sRGB">
<feFlood flood-opacity="0" result="BackgroundImageFix"/>
<feBlend mode="normal" in="SourceGraphic" in2="BackgroundImageFix" result="shape"/>
<feColorMatrix in="SourceAlpha" type="matrix" values="0 0 0 0 0 0 0 0 0 0 0 0 0 0 0 0 0 0 127 0" result="hardAlpha"/>
<feOffset dy="2.25097"/>
<feGaussianBlur stdDeviation="1.12548"/>
<feComposite in2="hardAlpha" operator="arithmetic" k2="-1" k3="1"/>
<feColorMatrix type="matrix" values="0 0 0 0 0 0 0 0 0 0 0 0 0 0 0 0 0 0 0.25 0"/>
<feBlend mode="normal" in2="shape" result="effect1_innerShadow_6_193"/>
</filter>
</defs>
</svg>
