<svg width="348" height="405" viewBox="0 0 348 405" fill="none" xmlns="http://www.w3.org/2000/svg">
<g filter="url(#filter0_d_198_306)">
<path d="M35.8197 76.8502C28.8798 154.437 25.46 196.752 23.7966 261.071C26.1834 286.056 30.724 296.852 48.7766 306.145C121.414 337.395 172.093 361.451 231.548 384.048C256.602 386.669 266.346 381.31 276.168 367.773C296.365 318.162 306.155 262.253 325.225 191.999C330.102 164.586 326.087 152.679 305.783 138.093C230.166 94.2136 119.874 33.352 119.874 33.352C119.874 33.352 99.0396 19.7999 85.5624 20.8509C69.5933 23.685 62.229 28.1534 52.5734 37.8912C41.3975 49.409 37.7579 57.9507 35.8197 76.8502Z" fill="#00235D"/>
</g>
<path d="M39.6867 78.379C42.7256 156.216 44.7452 198.621 51.3207 262.625C56.883 287.099 62.7669 297.226 81.8597 304.134C157.897 325.839 211.237 343.216 273.092 358.024C298.277 357.42 307.255 350.859 315.265 336.177C328.953 284.391 331.512 227.689 341.442 155.573C342.773 127.761 337.267 116.465 315.265 104.596C234.658 70.7466 117.489 24.489 117.489 24.489C117.489 24.489 95.0918 13.7125 81.8597 16.4784C66.3842 21.3314 59.6517 26.7048 51.3207 37.5974C41.7094 50.4499 39.1921 59.3868 39.6867 78.379Z" fill="white"/>
<defs>
<filter id="filter0_d_198_306" x="3.7966" y="0.792969" width="343.304" height="403.9" filterUnits="userSpaceOnUse" color-interpolation-filters="sRGB">
<feFlood flood-opacity="0" result="BackgroundImageFix"/>
<feColorMatrix in="SourceAlpha" type="matrix" values="0 0 0 0 0 0 0 0 0 0 0 0 0 0 0 0 0 0 127 0" result="hardAlpha"/>
<feOffset/>
<feGaussianBlur stdDeviation="10"/>
<feComposite in2="hardAlpha" operator="out"/>
<feColorMatrix type="matrix" values="0 0 0 0 0 0 0 0 0 0 0 0 0 0 0 0 0 0 0.1 0"/>
<feBlend mode="normal" in2="BackgroundImageFix" result="effect1_dropShadow_198_306"/>
<feBlend mode="normal" in="SourceGraphic" in2="effect1_dropShadow_198_306" result="shape"/>
</filter>
</defs>
</svg>
