<svg width="348" height="405" viewBox="0 0 348 405" fill="none" xmlns="http://www.w3.org/2000/svg">
<g filter="url(#filter0_d_198_308)">
<path d="M311.44 76.8502C318.38 154.437 321.8 196.752 323.463 261.071C321.076 286.056 316.536 296.852 298.483 306.145C225.845 337.395 175.164 361.451 115.71 384.048C90.6543 386.669 80.9103 381.31 71.0884 367.773C50.8909 318.162 41.1008 262.253 22.0305 191.999C17.1538 164.586 21.1694 152.679 41.4731 138.093C117.091 94.2136 227.384 33.352 227.384 33.352C227.384 33.352 248.219 19.7999 261.697 20.8509C277.666 23.685 285.03 28.1534 294.686 37.8912C305.862 49.409 309.502 57.9507 311.44 76.8502Z" fill="#00235D"/>
</g>
<path d="M307.573 78.379C304.534 156.216 302.514 198.621 295.939 262.625C290.376 287.099 284.492 297.226 265.399 304.134C189.361 325.839 136.021 343.216 74.1644 358.024C48.9797 357.42 40.001 350.859 31.9909 336.177C18.3036 284.391 15.7437 227.689 5.81427 155.573C4.48331 127.761 9.98865 116.465 31.9909 104.596C112.599 70.7466 229.77 24.489 229.77 24.489C229.77 24.489 252.167 13.7125 265.399 16.4784C280.875 21.3314 287.608 26.7048 295.939 37.5974C305.55 50.4499 308.068 59.3868 307.573 78.379Z" fill="white"/>
<defs>
<filter id="filter0_d_198_308" x="0.155762" y="0.792969" width="343.307" height="403.9" filterUnits="userSpaceOnUse" color-interpolation-filters="sRGB">
<feFlood flood-opacity="0" result="BackgroundImageFix"/>
<feColorMatrix in="SourceAlpha" type="matrix" values="0 0 0 0 0 0 0 0 0 0 0 0 0 0 0 0 0 0 127 0" result="hardAlpha"/>
<feOffset/>
<feGaussianBlur stdDeviation="10"/>
<feComposite in2="hardAlpha" operator="out"/>
<feColorMatrix type="matrix" values="0 0 0 0 0 0 0 0 0 0 0 0 0 0 0 0 0 0 0.1 0"/>
<feBlend mode="normal" in2="BackgroundImageFix" result="effect1_dropShadow_198_308"/>
<feBlend mode="normal" in="SourceGraphic" in2="effect1_dropShadow_198_308" result="shape"/>
</filter>
</defs>
</svg>
