<svg width="142" height="142" viewBox="0 0 142 142" fill="none" xmlns="http://www.w3.org/2000/svg">
<g filter="url(#filter0_i_6_191)">
<path d="M88.2856 17.3814C117.845 26.9809 134.026 58.7258 124.427 88.2855C114.827 117.845 83.0824 134.026 53.5226 124.427C23.9629 114.827 7.78195 83.0823 17.3815 53.5225C26.981 23.9628 58.7259 7.78185 88.2856 17.3814ZM54.6216 121.043C82.3124 130.035 112.05 114.877 121.043 87.1866C130.035 59.4957 114.878 29.7579 87.1867 20.7653C59.4958 11.7727 29.758 26.9306 20.7654 54.6215C11.7728 82.3123 26.9307 112.05 54.6216 121.043Z" fill="white"/>
</g>
<path d="M88.2856 17.3814C117.845 26.9809 134.026 58.7258 124.427 88.2855C114.827 117.845 83.0824 134.026 53.5226 124.427C23.9629 114.827 7.78195 83.0823 17.3815 53.5225C26.981 23.9628 58.7259 7.78185 88.2856 17.3814ZM54.6336 121.006C82.304 129.992 112.02 114.845 121.006 87.1746C129.992 59.5041 114.845 29.7882 87.1747 20.8022C59.5042 11.8163 29.7883 26.963 20.8023 54.6335C11.8164 82.3039 26.9631 112.02 54.6336 121.006Z" fill="#FE9C29"/>
<path d="M48.7628 63.6514V61.6177H53.3694V79.3335H51.1151V63.6514H48.7628ZM56.4645 70.2918C56.4645 67.4821 56.9219 65.2931 57.8367 63.7249C58.7515 62.1404 60.3523 61.3481 62.6393 61.3481C64.9099 61.3481 66.5027 62.1404 67.4174 63.7249C68.3322 65.2931 68.7896 67.4821 68.7896 70.2918C68.7896 73.1505 68.3322 75.3721 67.4174 76.9567C66.5027 78.5412 64.9099 79.3335 62.6393 79.3335C60.3523 79.3335 58.7515 78.5412 57.8367 76.9567C56.9219 75.3721 56.4645 73.1505 56.4645 70.2918ZM66.5843 70.2918C66.5843 68.8706 66.4863 67.67 66.2903 66.6898C66.1106 65.6934 65.7267 64.8929 65.1386 64.2885C64.5669 63.6841 63.7338 63.3819 62.6393 63.3819C61.5285 63.3819 60.679 63.6841 60.091 64.2885C59.5192 64.8929 59.1353 65.6934 58.9393 66.6898C58.7596 67.67 58.6698 68.8706 58.6698 70.2918C58.6698 71.762 58.7596 72.9953 58.9393 73.9918C59.1353 74.9883 59.5192 75.7887 60.091 76.3931C60.679 76.9975 61.5285 77.2997 62.6393 77.2997C63.7338 77.2997 64.5669 76.9975 65.1386 76.3931C65.7267 75.7887 66.1106 74.9883 66.2903 73.9918C66.4863 72.9953 66.5843 71.762 66.5843 70.2918ZM71.1157 70.2918C71.1157 67.4821 71.5731 65.2931 72.4879 63.7249C73.4027 62.1404 75.0035 61.3481 77.2905 61.3481C79.5612 61.3481 81.1539 62.1404 82.0686 63.7249C82.9834 65.2931 83.4408 67.4821 83.4408 70.2918C83.4408 73.1505 82.9834 75.3721 82.0686 76.9567C81.1539 78.5412 79.5612 79.3335 77.2905 79.3335C75.0035 79.3335 73.4027 78.5412 72.4879 76.9567C71.5731 75.3721 71.1157 73.1505 71.1157 70.2918ZM81.2355 70.2918C81.2355 68.8706 81.1375 67.67 80.9415 66.6898C80.7618 65.6934 80.3779 64.8929 79.7898 64.2885C79.2181 63.6841 78.385 63.3819 77.2905 63.3819C76.1797 63.3819 75.3303 63.6841 74.7422 64.2885C74.1704 64.8929 73.7866 65.6934 73.5905 66.6898C73.4108 67.67 73.321 68.8706 73.321 70.2918C73.321 71.762 73.4108 72.9953 73.5905 73.9918C73.7866 74.9883 74.1704 75.7887 74.7422 76.3931C75.3303 76.9975 76.1797 77.2997 77.2905 77.2997C78.385 77.2997 79.2181 76.9975 79.7898 76.3931C80.3779 75.7887 80.7618 74.9883 80.9415 73.9918C81.1375 72.9953 81.2355 71.762 81.2355 70.2918ZM85.2769 65.6117C85.2769 64.5009 85.6117 63.6188 86.2815 62.9653C86.9512 62.2956 87.8089 61.9607 88.8543 61.9607C89.8998 61.9607 90.7574 62.2956 91.4272 62.9653C92.0969 63.6188 92.4318 64.5009 92.4318 65.6117C92.4318 66.7388 92.0969 67.6373 91.4272 68.307C90.7574 68.9605 89.8998 69.2872 88.8543 69.2872C87.8089 69.2872 86.9512 68.9605 86.2815 68.307C85.6117 67.6373 85.2769 66.7388 85.2769 65.6117ZM99.5867 62.2302L89.6629 79.3335H87.4576L97.3814 62.2302H99.5867ZM88.8543 63.3329C88.2989 63.3329 87.8579 63.5289 87.5311 63.921C87.2208 64.2967 87.0656 64.8603 87.0656 65.6117C87.0656 66.3631 87.2208 66.9349 87.5311 67.3269C87.8579 67.719 88.2989 67.915 88.8543 67.915C89.4097 67.915 89.8508 67.719 90.1775 67.3269C90.5042 66.9185 90.6676 66.3468 90.6676 65.6117C90.6676 64.8603 90.5042 64.2967 90.1775 63.921C89.8508 63.5289 89.4097 63.3329 88.8543 63.3329ZM94.6616 75.952C94.6616 74.8249 94.9965 73.9346 95.6662 73.2812C96.336 72.6114 97.1936 72.2766 98.2391 72.2766C99.2845 72.2766 100.134 72.6114 100.787 73.2812C101.457 73.9346 101.792 74.8249 101.792 75.952C101.792 77.0629 101.457 77.9531 100.787 78.6229C100.134 79.2927 99.2845 79.6275 98.2391 79.6275C97.1936 79.6275 96.336 79.3008 95.6662 78.6474C94.9965 77.9777 94.6616 77.0792 94.6616 75.952ZM98.2146 73.6732C97.6592 73.6732 97.2181 73.8693 96.8914 74.2613C96.5647 74.637 96.4013 75.2006 96.4013 75.952C96.4013 76.6871 96.5647 77.2507 96.8914 77.6428C97.2181 78.0185 97.6592 78.2063 98.2146 78.2063C98.77 78.2063 99.211 78.0185 99.5377 77.6428C99.8644 77.2507 100.028 76.6871 100.028 75.952C100.028 75.2006 99.8644 74.637 99.5377 74.2613C99.211 73.8693 98.77 73.6732 98.2146 73.6732Z" fill="#FE9C29"/>
<defs>
<filter id="filter0_i_6_191" x="14.6147" y="14.6145" width="112.579" height="114.83" filterUnits="userSpaceOnUse" color-interpolation-filters="sRGB">
<feFlood flood-opacity="0" result="BackgroundImageFix"/>
<feBlend mode="normal" in="SourceGraphic" in2="BackgroundImageFix" result="shape"/>
<feColorMatrix in="SourceAlpha" type="matrix" values="0 0 0 0 0 0 0 0 0 0 0 0 0 0 0 0 0 0 127 0" result="hardAlpha"/>
<feOffset dy="2.25097"/>
<feGaussianBlur stdDeviation="1.12548"/>
<feComposite in2="hardAlpha" operator="arithmetic" k2="-1" k3="1"/>
<feColorMatrix type="matrix" values="0 0 0 0 0 0 0 0 0 0 0 0 0 0 0 0 0 0 0.25 0"/>
<feBlend mode="normal" in2="shape" result="effect1_innerShadow_6_191"/>
</filter>
</defs>
</svg>
