<svg width="41" height="40" viewBox="0 0 41 40" fill="none" xmlns="http://www.w3.org/2000/svg">
<g clip-path="url(#clip0_6_450)">
<circle cx="20.6667" cy="20" r="19.5" fill="#00245A" stroke="white"/>
<path d="M12.3333 10.8332C12.3333 9.7281 12.7723 8.66829 13.5537 7.88689C14.3351 7.10549 15.3949 6.6665 16.5 6.6665H20.6667V14.9998H16.5C15.3949 14.9998 14.3351 14.5609 13.5537 13.7794C12.7723 12.998 12.3333 11.9382 12.3333 10.8332Z" stroke="white" stroke-linecap="round" stroke-linejoin="round"/>
<path d="M20.6667 6.6665H24.8333C25.3805 6.6665 25.9223 6.77428 26.4278 6.98367C26.9334 7.19307 27.3927 7.49998 27.7796 7.88689C28.1665 8.2738 28.4734 8.73313 28.6828 9.23866C28.8922 9.74418 29 10.286 29 10.8332C29 11.3803 28.8922 11.9222 28.6828 12.4277C28.4734 12.9332 28.1665 13.3925 27.7796 13.7794C27.3927 14.1664 26.9334 14.4733 26.4278 14.6827C25.9223 14.8921 25.3805 14.9998 24.8333 14.9998H20.6667V6.6665Z" stroke="white" stroke-linecap="round" stroke-linejoin="round"/>
<path d="M20.6667 19.1667C20.6667 18.6195 20.7744 18.0777 20.9838 17.5722C21.1932 17.0666 21.5001 16.6073 21.887 16.2204C22.274 15.8335 22.7333 15.5266 23.2388 15.3172C23.7443 15.1078 24.2861 15 24.8333 15C25.3805 15 25.9223 15.1078 26.4278 15.3172C26.9334 15.5266 27.3927 15.8335 27.7796 16.2204C28.1665 16.6073 28.4734 17.0666 28.6828 17.5722C28.8922 18.0777 29 18.6195 29 19.1667C29 19.7138 28.8922 20.2557 28.6828 20.7612C28.4734 21.2667 28.1665 21.726 27.7796 22.1129C27.3927 22.4999 26.9334 22.8068 26.4278 23.0162C25.9223 23.2256 25.3805 23.3333 24.8333 23.3333C24.2861 23.3333 23.7443 23.2256 23.2388 23.0162C22.7333 22.8068 22.274 22.4999 21.887 22.1129C21.5001 21.726 21.1932 21.2667 20.9838 20.7612C20.7744 20.2557 20.6667 19.7138 20.6667 19.1667V19.1667Z" stroke="white" stroke-linecap="round" stroke-linejoin="round"/>
<path d="M12.3333 27.5002C12.3333 26.3951 12.7723 25.3353 13.5537 24.5539C14.3351 23.7725 15.3949 23.3335 16.5 23.3335H20.6667V27.5002C20.6667 28.6052 20.2277 29.665 19.4463 30.4464C18.6649 31.2278 17.6051 31.6668 16.5 31.6668C15.3949 31.6668 14.3351 31.2278 13.5537 30.4464C12.7723 29.665 12.3333 28.6052 12.3333 27.5002Z" stroke="white" stroke-linecap="round" stroke-linejoin="round"/>
<path d="M12.3333 19.1667C12.3333 18.0616 12.7723 17.0018 13.5537 16.2204C14.3351 15.439 15.3949 15 16.5 15H20.6667V23.3333H16.5C15.3949 23.3333 14.3351 22.8943 13.5537 22.1129C12.7723 21.3315 12.3333 20.2717 12.3333 19.1667Z" stroke="white" stroke-linecap="round" stroke-linejoin="round"/>
</g>
<defs>
<clipPath id="clip0_6_450">
<rect width="40" height="40" fill="white" transform="translate(0.666656)"/>
</clipPath>
</defs>
</svg>
