<svg width="41" height="40" viewBox="0 0 41 40" fill="none" xmlns="http://www.w3.org/2000/svg">
<circle cx="20.3333" cy="20" r="19.5" fill="#00245A" stroke="white"/>
<path fill-rule="evenodd" clip-rule="evenodd" d="M14.1125 8C10.9207 8 8.33333 10.5874 8.33333 13.7791V26.3374C8.33333 29.5291 10.9207 32.1165 14.1125 32.1165H26.6707C29.8624 32.1165 32.4499 29.5291 32.4499 26.3374V13.7791C32.4499 10.5874 29.8624 8 26.6707 8H14.1125ZM7.33333 13.7791C7.33333 10.0351 10.3684 7 14.1125 7H26.6707C30.4147 7 33.4499 10.0351 33.4499 13.7791V26.3374C33.4499 30.0814 30.4147 33.1165 26.6707 33.1165H14.1125C10.3684 33.1165 7.33333 30.0814 7.33333 26.3374V13.7791ZM21.1096 15.5293C20.1685 15.3898 19.2073 15.5505 18.3628 15.9887C17.5183 16.4269 16.8335 17.1202 16.4057 17.9701C15.978 18.8199 15.8291 19.783 15.9803 20.7223C16.1314 21.6616 16.5749 22.5294 17.2477 23.2022C17.9204 23.8749 18.7882 24.3184 19.7275 24.4696C20.6668 24.6207 21.6299 24.4718 22.4797 24.0441C23.3296 23.6163 24.0229 22.9315 24.4611 22.087C24.8993 21.2425 25.06 20.2813 24.9205 19.3402C24.7781 18.3802 24.3308 17.4915 23.6446 16.8052C22.9583 16.119 22.0696 15.6717 21.1096 15.5293ZM17.9022 15.1011C18.9334 14.566 20.1071 14.3697 21.2563 14.5401C22.4285 14.714 23.5137 15.2602 24.3517 16.0981C25.1896 16.9361 25.7358 18.0213 25.9097 19.1935C26.0801 20.3427 25.8838 21.5164 25.3487 22.5476C24.8137 23.5788 23.9671 24.415 22.9293 24.9373C21.8916 25.4596 20.7156 25.6414 19.5686 25.4569C18.4216 25.2723 17.362 24.7307 16.5405 23.9093C15.7191 23.0878 15.1775 22.0282 14.993 20.8812C14.8084 19.7342 14.9902 18.5582 15.5125 17.5205C16.0348 16.4828 16.871 15.6362 17.9022 15.1011ZM27.2986 12.6512C27.0225 12.6512 26.7986 12.8751 26.7986 13.1512C26.7986 13.4274 27.0225 13.6512 27.2986 13.6512H27.313C27.5892 13.6512 27.813 13.4274 27.813 13.1512C27.813 12.8751 27.5892 12.6512 27.313 12.6512H27.2986Z" fill="white"/>
</svg>
