<svg width="41" height="40" viewBox="0 0 41 40" fill="none" xmlns="http://www.w3.org/2000/svg">
<g clip-path="url(#clip0_6_447)">
<circle cx="20.6667" cy="20" r="19.5" fill="#00245A" stroke="white"/>
<path d="M33.8148 8.34564C32.6621 9.16126 31.3859 9.78509 30.0352 10.1931C29.3102 9.35692 28.3468 8.76426 27.2751 8.49528C26.2035 8.22629 25.0753 8.29395 24.0432 8.68911C23.0112 9.08427 22.125 9.78786 21.5045 10.7047C20.884 11.6216 20.5592 12.7075 20.5741 13.8155V15.023C18.4587 15.078 16.3626 14.6074 14.4725 13.6531C12.5824 12.6987 10.9568 11.2902 9.74072 9.55312C9.74072 9.55312 4.92591 20.4205 15.7592 25.2504C13.2802 26.9384 10.3271 27.7848 7.33331 27.6653C18.1666 33.7028 31.4074 27.6653 31.4074 13.7793C31.4063 13.443 31.374 13.1075 31.3111 12.7771C32.5396 11.5618 33.4065 10.0273 33.8148 8.34564V8.34564Z" stroke="white" stroke-linecap="round" stroke-linejoin="round"/>
</g>
<defs>
<clipPath id="clip0_6_447">
<rect width="40" height="40" fill="white" transform="translate(0.666656)"/>
</clipPath>
</defs>
</svg>
