<svg width="37" height="32" viewBox="0 0 37 32" fill="none" xmlns="http://www.w3.org/2000/svg">
<path fill-rule="evenodd" clip-rule="evenodd" d="M17.1966 0.00133296C16.4901 0.00133296 15.8125 0.282184 15.313 0.782102C14.8134 1.28202 14.5328 1.96006 14.5328 2.66705C14.5328 3.37404 14.8134 4.05207 15.313 4.55199C15.8125 5.05191 16.4901 5.33276 17.1966 5.33276H24.4636C26.3033 5.36861 28.0556 6.12511 29.344 7.43974C30.6323 8.75437 31.3541 10.5223 31.3541 12.3636C31.3541 14.2049 30.6323 15.9728 29.344 17.2874C28.0556 18.6021 26.3033 19.3586 24.4636 19.3944H12.5935V14.7881C12.5934 14.2609 12.4371 13.7456 12.1443 13.3074C11.8516 12.8691 11.4356 12.5275 10.9489 12.3258C10.4623 12.1241 9.92673 12.0713 9.41007 12.1741C8.89341 12.2769 8.4188 12.5307 8.04626 12.9034L0.784582 20.1701C0.411691 20.5428 0.157133 21.0174 0.0528675 21.5343C-0.0513976 22.0513 -0.000721489 22.5875 0.198533 23.0758C0.329062 23.393 0.52086 23.6889 0.779254 23.9474L8.04626 31.2195C8.4188 31.5922 8.89341 31.846 9.41007 31.9488C9.92673 32.0516 10.4623 31.9988 10.9489 31.7971C11.4356 31.5954 11.8516 31.2538 12.1443 30.8155C12.4371 30.3773 12.5934 29.862 12.5935 29.3349V24.7258H24.4636C26.1012 24.7499 27.7272 24.4479 29.2471 23.8375C30.767 23.227 32.1504 22.3202 33.3169 21.1699C34.4835 20.0196 35.4098 18.6486 36.0421 17.1368C36.6744 15.625 37 14.0025 37 12.3636C37 10.7247 36.6744 9.10217 36.0421 7.59035C35.4098 6.07853 34.4835 4.70759 33.3169 3.55726C32.1504 2.40693 30.767 1.50017 29.2471 0.88971C27.7272 0.279248 26.1012 -0.0227313 24.4636 0.00133296H17.1966Z" fill="#0D2F62"/>
</svg>
