<svg width="19" height="19" viewBox="0 0 19 19" fill="none" xmlns="http://www.w3.org/2000/svg">
<path d="M13.3158 8.78947V5.78947H10.3158V3.78947H13.3158V0.789474H15.3158V3.78947H18.3158V5.78947H15.3158V8.78947H13.3158ZM17.2658 18.7895C15.1825 18.7895 13.1201 18.3395 11.0788 17.4395C9.03746 16.5395 7.18313 15.2561 5.5158 13.5895C3.84846 11.9228 2.56513 10.0728 1.6658 8.03947C0.766462 6.00614 0.316463 3.93947 0.315796 1.83947V0.789474H6.2158L7.1408 5.81447L4.2908 8.68947C4.65746 9.33947 5.0658 9.95614 5.5158 10.5395C5.9658 11.1228 6.44913 11.6645 6.9658 12.1645C7.44913 12.6478 7.97846 13.1105 8.5538 13.5525C9.12913 13.9945 9.7498 14.4068 10.4158 14.7895L13.3158 11.8895L18.3158 12.9145V18.7895H17.2658Z" fill="url(#paint0_linear_4_22)"/>
<defs>
<linearGradient id="paint0_linear_4_22" x1="0.315796" y1="9.78947" x2="18.3158" y2="9.78947" gradientUnits="userSpaceOnUse">
<stop stop-color="#092143"/>
<stop offset="1" stop-color="#00235D"/>
</linearGradient>
</defs>
</svg>
